<svg xmlns="http://www.w3.org/2000/svg" viewBox="0 0 32 32" shape-rendering="crispEdges">
  <!-- Kippy — pixel capybara (transparent background) -->
  <!-- ears -->
  <rect x="7" y="4" width="3" height="3" fill="#5a3a24"/>
  <rect x="22" y="4" width="3" height="3" fill="#5a3a24"/>
  <rect x="8" y="5" width="1" height="1" fill="#3a2416"/>
  <rect x="23" y="5" width="1" height="1" fill="#3a2416"/>
  <!-- head outline / fill -->
  <rect x="6" y="7" width="20" height="16" fill="#a67c52"/>
  <rect x="5" y="9" width="1" height="12" fill="#5a3a24"/>
  <rect x="26" y="9" width="1" height="12" fill="#5a3a24"/>
  <rect x="6" y="7" width="20" height="1" fill="#5a3a24"/>
  <rect x="7" y="6" width="18" height="1" fill="#5a3a24"/>
  <rect x="6" y="22" width="20" height="1" fill="#5a3a24"/>
  <!-- forehead highlight -->
  <rect x="10" y="8" width="12" height="3" fill="#c49a6c"/>
  <!-- eyes -->
  <rect x="10" y="12" width="3" height="3" fill="#2a1810"/>
  <rect x="19" y="12" width="3" height="3" fill="#2a1810"/>
  <rect x="11" y="12" width="1" height="1" fill="#ffffff"/>
  <rect x="20" y="12" width="1" height="1" fill="#ffffff"/>
  <!-- snout -->
  <rect x="11" y="16" width="10" height="5" fill="#8b5e3c"/>
  <rect x="12" y="15" width="8" height="1" fill="#8b5e3c"/>
  <rect x="13" y="17" width="1" height="1" fill="#2a1810"/>
  <rect x="18" y="17" width="1" height="1" fill="#2a1810"/>
  <rect x="15" y="19" width="2" height="1" fill="#5a3a24"/>
  <!-- cheeks / shoulders -->
  <rect x="4" y="20" width="3" height="5" fill="#8b5e3c"/>
  <rect x="25" y="20" width="3" height="5" fill="#8b5e3c"/>
  <rect x="7" y="23" width="18" height="4" fill="#a67c52"/>
  <rect x="6" y="24" width="1" height="3" fill="#5a3a24"/>
  <rect x="25" y="24" width="1" height="3" fill="#5a3a24"/>
  <rect x="7" y="27" width="18" height="1" fill="#5a3a24"/>
</svg>
